<svg width="81" height="81" viewBox="0 0 81 81" fill="none" xmlns="http://www.w3.org/2000/svg">
<rect x="1" y="1" width="79" height="79" rx="14" stroke="#060606" stroke-width="2"/>
<path d="M30.8345 44.401L21.8009 41.2789C21.8009 41.2789 20.7213 40.8143 21.069 39.7607C21.1405 39.5434 21.2849 39.3586 21.7167 39.0409C23.7183 37.561 58.7646 24.1992 58.7646 24.1992C58.7646 24.1992 59.7541 23.8455 60.3377 24.0807C60.4821 24.1281 60.612 24.2154 60.7142 24.3335C60.8164 24.4517 60.8871 24.5965 60.9192 24.7531C60.9823 25.0298 61.0086 25.3145 60.9975 25.5989C60.9948 25.845 60.9667 26.073 60.9454 26.4307C60.732 30.0838 54.3444 57.3485 54.3444 57.3485C54.3444 57.3485 53.9622 58.944 52.5929 58.9986C52.2564 59.0101 51.9212 58.9497 51.6072 58.8208C51.2932 58.692 51.0069 58.4974 50.7653 58.2487C48.0783 55.797 38.7912 49.1765 36.739 47.7204C36.6927 47.687 36.6538 47.6434 36.6247 47.5926C36.5957 47.5418 36.5772 47.485 36.5706 47.426C36.5419 47.2725 36.6992 47.0824 36.6992 47.0824C36.6992 47.0824 52.8706 31.835 53.3009 30.2343C53.3342 30.1103 53.2083 30.0492 53.0393 30.1035C51.9652 30.5226 33.346 42.9951 31.291 44.3716C31.1431 44.419 30.9868 44.4291 30.8345 44.401Z" fill="#060606"/>
</svg>
