<svg width="40" height="35" viewBox="0 0 40 35" fill="none" xmlns="http://www.w3.org/2000/svg">
<path d="M9.8345 20.401L0.800944 17.2789C0.800944 17.2789 -0.278665 16.8143 0.0689689 15.7607C0.140532 15.5434 0.28489 15.3586 0.716734 15.0409C2.71833 13.561 37.7646 0.199187 37.7646 0.199187C37.7646 0.199187 38.7541 -0.154514 39.3377 0.0807413C39.4821 0.128148 39.612 0.215385 39.7142 0.333526C39.8164 0.451667 39.8871 0.596473 39.9192 0.753132C39.9823 1.02983 40.0086 1.31451 39.9975 1.59894C39.9948 1.84499 39.9667 2.07305 39.9454 2.43067C39.732 6.08383 33.3444 33.3485 33.3444 33.3485C33.3444 33.3485 32.9622 34.944 31.5929 34.9986C31.2564 35.0101 30.9212 34.9497 30.6072 34.8208C30.2932 34.692 30.0069 34.4974 29.7653 34.2487C27.0783 31.797 17.7912 25.1765 15.739 23.7204C15.6927 23.687 15.6538 23.6434 15.6247 23.5926C15.5957 23.5418 15.5772 23.485 15.5706 23.426C15.5419 23.2725 15.6992 23.0824 15.6992 23.0824C15.6992 23.0824 31.8706 7.835 32.3009 6.23435C32.3342 6.11034 32.2083 6.04915 32.0393 6.10347C30.9652 6.52261 12.346 18.9951 10.291 20.3716C10.1431 20.419 9.98675 20.4291 9.8345 20.401Z" fill="#060606"/>
</svg>
