<svg width="184" height="78" viewBox="0 0 184 78" fill="none" xmlns="http://www.w3.org/2000/svg">
<path d="M67.002 0.65332L105.648 4.32422L105.693 4.3291L105.739 4.32715L138.879 2.88574L175.01 7.29199L182.342 27.3496L168.138 50.1748L167.977 50.4346L168.072 50.7246L174.639 70.6396L145.656 77.0215L104.993 72.834L104.919 72.8262L104.844 72.8359L71.8975 77.0205L42.2158 70.4844L42.0625 70.4502L41.9111 70.4893L16.8857 76.9658L0.919922 63.6895L10.4326 52.2715L10.6611 51.9971L10.5537 51.6562L5.53027 35.7246L12.1006 20.2002L12.1709 20.0342L12.1455 19.8564L10.4092 7.2793L29.5908 5.50586L29.6533 5.5L29.7129 5.48242L46.3477 0.65332H67.002Z" fill="white" stroke="#060606" stroke-width="1.30668"/>
</svg>
